<svg width="65" height="82" viewBox="0 0 65 82" fill="none" xmlns="http://www.w3.org/2000/svg">
<path d="M28.429 56.5193C27.448 56.6219 26.4069 56.6743 25.4315 56.8329C23.5353 57.1444 22.268 58.2384 21.8046 60.2097C21.0605 63.2284 21.3143 66.3124 21.9439 69.3005C22.1706 70.4644 22.5552 71.5552 22.8308 72.6576C22.9302 73.0996 23.084 73.536 23.1289 73.9837C23.2073 74.7672 22.8762 75.3108 22.3481 75.5358C21.6564 75.7778 21.1323 75.4933 20.6947 74.9735C20.4487 74.7165 20.2515 74.3978 20.1089 74.0734C17.8605 69.2187 17.1269 64.0924 18.4209 58.867C19.2027 55.6748 21.3837 53.8065 24.4566 53.1457C25.5353 52.9197 26.7343 52.7943 27.8299 52.7363C32.6484 52.4584 37.0486 50.7539 41.2068 48.2829C43.6506 46.8396 45.4164 44.6755 46.5813 42.0087C47.8326 39.1065 48.6857 36.0765 49.3753 33.0634C50.9708 26.4493 52.5608 19.7792 54.271 13.2096C54.7512 11.4061 55.5095 9.63013 56.1645 7.92153C56.3377 7.45097 56.6744 6.96332 57.0222 6.58759C57.169 6.40261 57.5993 6.301 57.8285 6.39015C58.0577 6.47926 58.2605 6.85395 58.2885 7.13379C58.2956 7.75514 58.3028 8.3765 58.1465 9.01498C57.4808 12.8172 56.7608 16.6252 56.0351 20.3772C55.1153 24.9412 54.1411 29.511 53.1669 34.0807C52.5318 37.088 51.6675 40.0062 50.5196 42.8409C48.8954 46.9696 46.1837 50.1376 42.3733 52.2329C37.9803 54.5587 33.4166 56.2803 28.429 56.5193Z" fill="#E0C5F9" fill-opacity="0.98"/>
<path d="M10.5596 64.9023C10.6954 66.4715 10.8313 68.0407 10.967 69.6099C11.0641 70.7308 10.7403 71.4377 9.93625 71.6798C9.18677 71.9168 8.38401 71.5375 7.91954 70.6192C7.71705 70.1856 7.50961 69.696 7.41623 69.2526C6.33092 63.7025 5.95982 58.1445 7.23562 52.5506C8.00086 49.3186 9.28147 46.3225 11.3746 43.8179C13.9152 40.7646 17.1519 39.3992 21.0302 39.727C22.6916 39.8594 24.3627 40.1039 26.0095 40.0682C27.5472 40.0424 29.0752 39.9044 30.5293 39.5473C33.4919 38.828 35.5196 36.8376 36.5273 33.8661C37.0014 32.3549 37.3119 30.8583 37.6721 29.3008C38.9091 23.2587 39.9824 17.2314 41.6753 11.374C41.8051 10.9669 41.8803 10.5647 42.0694 10.2088C42.2137 9.96983 42.5218 9.7161 42.7401 9.69643C42.9584 9.67676 43.3149 9.98344 43.3889 10.2027C43.6108 10.8604 43.7781 11.5231 43.7769 12.1445C43.7381 14.2378 43.749 16.2701 43.4774 18.2149C42.814 22.6238 42.0366 26.9865 41.2593 31.3493C41.1186 32.2657 40.8688 33.1919 40.619 34.1181C38.926 39.9755 34.9022 43.0497 29.1468 43.9082C26.6462 44.2468 24.142 43.908 21.702 43.6765C21.2011 43.6087 20.6506 43.6019 20.1498 43.5341C17.9924 43.39 16.1951 44.23 14.7386 45.83C13.1282 47.5568 12.0974 49.6267 11.4134 51.8911C10.4444 55.3109 10.0855 58.7887 10.2771 62.2732C10.3547 63.1699 10.4275 64.0105 10.5596 64.9023C10.505 64.9072 10.505 64.9072 10.5596 64.9023Z" fill="#9B51E0" fill-opacity="0.98"/>
</svg>
