<svg width="46" height="45" viewBox="0 0 46 45" fill="none" xmlns="http://www.w3.org/2000/svg">
<rect width="46" height="45" rx="12" fill="white"/>
<path d="M30.8591 18.1797L26.0066 23.0009L30.8591 27.8221C30.9468 27.6388 31 27.4361 31 27.2197V18.7822C31 18.5657 30.9468 18.363 30.8591 18.1797Z" fill="#9B51E0" fill-opacity="0.98"/>
<path d="M29.5937 17.375H16.4062C16.1897 17.375 15.9871 17.4282 15.8037 17.5159L22.0057 23.6867C22.5541 24.235 23.4458 24.235 23.9942 23.6867L30.1961 17.5159C30.0128 17.4282 29.8101 17.375 29.5937 17.375Z" fill="#9B51E0" fill-opacity="0.98"/>
<path d="M15.1409 18.1797C15.0532 18.363 15 18.5657 15 18.7822V27.2197C15 27.4361 15.0532 27.6388 15.1409 27.8221L19.9934 23.0009L15.1409 18.1797Z" fill="#9B51E0" fill-opacity="0.98"/>
<path d="M25.3437 23.6621L24.657 24.3488C23.7433 25.2625 22.2565 25.2625 21.3428 24.3488L20.6562 23.6621L15.8037 28.4833C15.9871 28.571 16.1897 28.6243 16.4062 28.6243H29.5937C29.8101 28.6243 30.0128 28.571 30.1961 28.4833L25.3437 23.6621Z" fill="#9B51E0" fill-opacity="0.98"/>
</svg>
