<svg width="34" height="35" viewBox="0 0 34 35" fill="none" xmlns="http://www.w3.org/2000/svg">
<path d="M11.714 12.7867C13.6135 11.6216 15.2714 12.0911 16.2673 12.839C16.6757 13.1457 16.8799 13.299 17 13.299C17.1201 13.299 17.3243 13.1457 17.7327 12.839C18.7286 12.0911 20.3865 11.6216 22.286 12.7867C24.7789 14.3159 25.3429 19.3605 19.5928 23.6166C18.4975 24.4272 17.95 24.8325 17 24.8325C16.05 24.8325 15.5024 24.4272 14.4072 23.6166C8.65704 19.3605 9.22111 14.3159 11.714 12.7867Z" stroke="#9B51E0" stroke-width="1.5" stroke-linecap="round"/>
<path d="M31.1667 17.7492C31.1667 9.92515 24.824 3.58252 17 3.58252C9.17597 3.58252 2.83334 9.92515 2.83334 17.7492C2.83334 25.5732 9.17597 31.9159 17 31.9159C24.824 31.9159 31.1667 25.5732 31.1667 17.7492Z" stroke="#9B51E0" stroke-width="1.5"/>
</svg>
