<svg width="32" height="32" viewBox="0 0 32 32" fill="none" xmlns="http://www.w3.org/2000/svg">
<path d="M17 5.25325C18.3333 4.29325 19.88 3.81325 21.6267 3.81325C22.5867 3.81325 23.64 4.06658 24.7867 4.59992C25.9333 5.11992 26.84 5.73325 27.5067 6.43992C28.88 8.14658 29.4533 10.1332 29.2533 12.3999C29.04 14.6666 28.2933 16.4399 27 17.6933L16.88 27.8133C16.6267 28.0666 16.3067 28.1866 15.9333 28.1866C15.56 28.1866 15.2533 28.0666 15 27.8133C14.8769 27.6918 14.7801 27.5462 14.7159 27.3856C14.6516 27.225 14.6213 27.0528 14.6267 26.8799C14.6267 26.5066 14.7467 26.1866 15 25.9333L21.12 19.8132C21.4533 19.5199 21.4533 19.2132 21.12 18.8799C20.7867 18.5466 20.48 18.5466 20.1867 18.8799L14.0667 24.9999C13.9433 25.1242 13.7954 25.2216 13.6325 25.2858C13.4695 25.3501 13.295 25.3799 13.12 25.3733C12.7467 25.3733 12.44 25.2533 12.1867 24.9999C12.0635 24.8784 11.9668 24.7328 11.9026 24.5722C11.8383 24.4116 11.8079 24.2395 11.8133 24.0666C11.8133 23.6932 11.9333 23.3733 12.1867 23.1199L18.3067 16.9999C18.6667 16.6666 18.6667 16.3333 18.3067 15.9999C18 15.6666 17.7067 15.6666 17.3733 15.9999L11.2533 22.1866C11.1285 22.309 10.9804 22.4051 10.8178 22.4692C10.6552 22.5333 10.4814 22.5642 10.3067 22.5599C9.93333 22.5599 9.61333 22.4399 9.33333 22.1866C9.06667 21.9332 8.93333 21.6266 8.93333 21.2532C8.93333 20.8799 9.08 20.5466 9.37333 20.2532L15.5067 14.1199C15.84 13.7866 15.84 13.4799 15.5067 13.1866C15.1733 12.8932 14.8533 12.8932 14.56 13.1866L8.37333 19.3333C8.08 19.5999 7.77333 19.7466 7.44 19.7466C7.06667 19.7466 6.74667 19.6132 6.50667 19.3333C6.25333 19.0666 6.12 18.7466 6.12 18.3732C6.12 17.9999 6.25333 17.6932 6.50667 17.4399C10.5867 13.3333 13.1067 10.8532 14.0667 9.93325L18.8133 14.6266C19.3333 15.1199 19.9333 15.3732 20.6667 15.3732C21.6 15.3732 22.3333 14.9999 22.88 14.2532C23.2533 13.7066 23.3867 13.1066 23.28 12.4399C23.1733 11.7732 22.8933 11.2132 22.44 10.7466L17 5.25325ZM19.7467 13.6932L14.0667 7.99992L4.62667 17.4399C3.50667 16.3066 2.86667 14.5732 2.72 12.2132C2.57333 9.86658 3.21333 7.82658 4.62667 6.11992C6.21333 4.54658 8.10667 3.74658 10.3067 3.74658C12.52 3.74658 14.4 4.54658 15.9333 6.11992L21.6267 11.8132C21.88 12.0666 22 12.3733 22 12.7466C22 13.1199 21.88 13.4399 21.6267 13.6932C21.3733 13.9332 21.0667 14.0666 20.6667 14.0666C20.3067 14.0666 20 13.9332 19.7467 13.6932Z" fill="#87008C"/>
</svg>
