<svg width="46" height="45" viewBox="0 0 46 45" fill="none" xmlns="http://www.w3.org/2000/svg">
<rect width="46" height="45" rx="12" fill="white"/>
<path d="M22.5 15.5C20.9093 15.5021 19.3844 16.1349 18.2597 17.2597C17.1349 18.3844 16.5021 19.9093 16.5 21.5C16.5 25.8075 22.09 31.2025 22.3275 31.43C22.3737 31.4749 22.4356 31.5 22.5 31.5C22.5644 31.5 22.6263 31.4749 22.6725 31.43C22.91 31.2025 28.5 25.8075 28.5 21.5C28.4979 19.9093 27.8651 18.3844 26.7403 17.2597C25.6156 16.1349 24.0907 15.5021 22.5 15.5ZM22.5 24.25C21.9561 24.25 21.4244 24.0887 20.9722 23.7865C20.5199 23.4844 20.1675 23.0549 19.9593 22.5524C19.7512 22.0499 19.6967 21.497 19.8028 20.9635C19.909 20.43 20.1709 19.9401 20.5555 19.5555C20.9401 19.1709 21.43 18.909 21.9635 18.8028C22.497 18.6967 23.0499 18.7512 23.5524 18.9593C24.0549 19.1675 24.4844 19.5199 24.7865 19.9722C25.0887 20.4244 25.25 20.9561 25.25 21.5C25.2496 22.2292 24.9597 22.9284 24.4441 23.4441C23.9284 23.9597 23.2292 24.2496 22.5 24.25Z" fill="#9B51E0" fill-opacity="0.98"/>
</svg>
