<svg width="46" height="45" viewBox="0 0 46 45" fill="none" xmlns="http://www.w3.org/2000/svg">
<rect width="46" height="45" rx="12" fill="white"/>
<path d="M26.6643 26.0834C26.1416 25.5673 25.489 25.5673 24.9696 26.0834C24.5734 26.4762 24.1772 26.8691 23.7877 27.2686C23.6811 27.3785 23.5913 27.4018 23.4614 27.3286C23.205 27.1887 22.932 27.0755 22.6856 26.9224C21.537 26.1999 20.5748 25.271 19.7224 24.2255C19.2996 23.7061 18.9234 23.1501 18.6603 22.5242C18.6071 22.3976 18.6171 22.3144 18.7203 22.2112C19.1165 21.8283 19.5027 21.4354 19.8922 21.0426C20.4349 20.4965 20.4349 19.8573 19.8889 19.3079C19.5793 18.9949 19.2696 18.6886 18.96 18.3757C18.6404 18.056 18.3241 17.7331 18.0011 17.4168C17.4784 16.9074 16.8258 16.9074 16.3064 17.4201C15.9069 17.813 15.524 18.2159 15.1178 18.6021C14.7416 18.9583 14.5518 19.3945 14.5118 19.9039C14.4486 20.7329 14.6517 21.5153 14.938 22.2778C15.524 23.8559 16.4163 25.2577 17.4984 26.5428C18.96 28.2808 20.7046 29.6559 22.7456 30.648C23.6645 31.0942 24.6167 31.4371 25.6522 31.4937C26.3647 31.5337 26.984 31.3539 27.48 30.7979C27.8196 30.4183 28.2025 30.072 28.5621 29.7091C29.0948 29.1698 29.0982 28.5172 28.5688 27.9845C27.9362 27.3485 27.3003 26.7159 26.6643 26.0834Z" fill="#9B51E0" fill-opacity="0.98"/>
<path d="M26.0283 23.4298L27.2569 23.22C27.0638 22.0914 26.5311 21.0692 25.722 20.2568C24.8663 19.4012 23.7843 18.8618 22.5923 18.6953L22.4192 19.9305C23.3414 20.0604 24.1805 20.4766 24.843 21.1391C25.469 21.7651 25.8785 22.5575 26.0283 23.4298Z" fill="#9B51E0" fill-opacity="0.98"/>
<path d="M27.9496 18.0903C26.5312 16.672 24.7367 15.7763 22.7556 15.5L22.5825 16.7352C24.2939 16.9749 25.8454 17.7507 27.0706 18.9726C28.2326 20.1346 28.995 21.6029 29.2714 23.2177L30.4999 23.0079C30.177 21.1368 29.2947 19.4387 27.9496 18.0903Z" fill="#9B51E0" fill-opacity="0.98"/>
</svg>
