<svg width="24" height="25" viewBox="0 0 24 25" fill="none" xmlns="http://www.w3.org/2000/svg">
<path d="M9 5.5C9 4.08579 9 3.37868 9.43934 2.93934C9.87868 2.5 10.5858 2.5 12 2.5C13.4142 2.5 14.1213 2.5 14.5607 2.93934C15 3.37868 15 4.08579 15 5.5C15 6.91421 15 7.62132 14.5607 8.06066C14.1213 8.5 13.4142 8.5 12 8.5C10.5858 8.5 9.87868 8.5 9.43934 8.06066C9 7.62132 9 6.91421 9 5.5Z" stroke="#9B51E0" stroke-width="1.5"/>
<path d="M2 19.5C2 18.0858 2 17.3787 2.43934 16.9393C2.87868 16.5 3.58579 16.5 5 16.5C6.41421 16.5 7.12132 16.5 7.56066 16.9393C8 17.3787 8 18.0858 8 19.5C8 20.9142 8 21.6213 7.56066 22.0607C7.12132 22.5 6.41421 22.5 5 22.5C3.58579 22.5 2.87868 22.5 2.43934 22.0607C2 21.6213 2 20.9142 2 19.5Z" stroke="#9B51E0" stroke-width="1.5"/>
<path d="M16 19.5C16 18.0858 16 17.3787 16.4393 16.9393C16.8787 16.5 17.5858 16.5 19 16.5C20.4142 16.5 21.1213 16.5 21.5607 16.9393C22 17.3787 22 18.0858 22 19.5C22 20.9142 22 21.6213 21.5607 22.0607C21.1213 22.5 20.4142 22.5 19 22.5C17.5858 22.5 16.8787 22.5 16.4393 22.0607C16 21.6213 16 20.9142 16 19.5Z" stroke="#9B51E0" stroke-width="1.5"/>
<path d="M12 8.5V9.5M12 9.5C12 10.4319 12 10.8978 12.1776 11.2654C12.4144 11.7554 12.8687 12.1448 13.4404 12.3478C13.8692 12.5 14.4128 12.5 15.5 12.5C16.5872 12.5 17.1308 12.5 17.5596 12.6522C18.1313 12.8552 18.5856 13.2446 18.8224 13.7346C19 14.1022 19 14.5681 19 15.5V16.5M12 9.5C12 10.4319 12 10.8978 11.8224 11.2654C11.5856 11.7554 11.1313 12.1448 10.5596 12.3478C10.1308 12.5 9.5872 12.5 8.5 12.5C7.4128 12.5 6.8692 12.5 6.44041 12.6522C5.86867 12.8552 5.41443 13.2446 5.17761 13.7346C5 14.1022 5 14.5681 5 15.5V16.5" stroke="#9B51E0" stroke-width="1.5" stroke-linecap="round" stroke-linejoin="round"/>
</svg>
